<svg xmlns="http://www.w3.org/2000/svg" viewBox="0 0 512 512">
  <defs>
    <linearGradient id="bg-gradient" x1="0%" y1="0%" x2="100%" y2="100%">
      <stop offset="0%" style="stop-color:#4f46e5;stop-opacity:1" />
      <stop offset="100%" style="stop-color:#ec4899;stop-opacity:1" />
    </linearGradient>
    <filter id="shadow" x="-20%" y="-20%" width="140%" height="140%">
      <feDropShadow dx="0" dy="4" stdDeviation="8" flood-color="#000000" flood-opacity="0.2"/>
    </filter>
  </defs>
  
  <!-- Background -->
  <rect x="0" y="0" width="512" height="512" fill="url(#bg-gradient)" />
  
  <!-- Content Group -->
  <g transform="translate(106, 106) scale(0.6)" filter="url(#shadow)">
    <!-- Open Book -->
    <path d="M464 96h-32v-64c0-17.67-14.33-32-32-32h-144c-26.51 0-48 21.49-48 48v288c0 26.51 21.49 48 48 48h176c17.67 0 32-14.33 32-32v-224c0-17.67-14.33-32-32-32z m-192 288c0-8.82-7.18-16-16-16h-144c-8.82 0-16 7.18-16 16v-288c0-8.82 7.18-16 16-16h144c8.82 0 16 7.18 16 16v288z" fill="#ffffff" opacity="0.9"/>
    <path d="M240 384h-16c-8.84 0-16-7.16-16-16s7.16-16 16-16h16c8.84 0 16 7.16 16 16s-7.16 16-16 16z" fill="#e0e7ff"/>
    
    <!-- Graduation Cap -->
    <path d="M496.1 128.3l-232-96c-5.2-2.2-11.1-2.2-16.3 0l-232 96c-10.4 4.3-10.4 19.1 0 23.4l232 96c5.2 2.2 11.1 2.2 16.3 0l232-96c10.4-4.3 10.4-19.1 0-23.4z" fill="#ffffff"/>
    <path d="M448 160v96c0 17.7-14.3 32-32 32s-32-14.3-32-32v-96" fill="none" stroke="#ffffff" stroke-width="24" stroke-linecap="round"/>
    <path d="M256 272c-53 0-96 28.7-96 64v32c0 17.7 43 32 96 32s96-14.3 96-32v-32c0-35.3-43-64-96-64z" fill="#fbbf24"/>
  </g>
</svg>
